<?xml version="1.0" encoding="utf-8"?>
<!-- Generator: Adobe Illustrator 24.0.0, SVG Export Plug-In . SVG Version: 6.00 Build 0)  -->
<svg version="1.1" id="Layer_1" xmlns="http://www.w3.org/2000/svg" xmlns:xlink="http://www.w3.org/1999/xlink" x="0px" y="0px"
	 viewBox="0 0 83.7 52.1" style="enable-background:new 0 0 83.7 52.1;" xml:space="preserve">
<style type="text/css">
	.st0{fill:#FFFFFF;}
</style>
<g id="Group_73" transform="translate(-753.17 -11003.8)">
	<g id="Group_72" transform="translate(753.17 11003.799)">
		<g id="Layer_2_1_" transform="translate(30.243 0)">
			<path id="Path_186" class="st0" d="M52.4,21.3c-1.3,0-2.6-0.2-3.9-0.6c-0.7-0.5-1.3-1.2-1.6-2c-0.4-1.5-0.6-3-0.5-4.5v-0.9
				c0-0.4,0-0.8,0-1.2c0.1-2.3-0.2-4.7-0.8-6.9c-0.4-1.3-1.2-2.4-2.2-3.3c-0.8-0.6-1.8-1.1-2.9-1.3c-1.2-0.3-2.3-0.4-3.5-0.5h-6l0,0
				h-7.5c-0.6,0-1.1,0.5-1.1,1.1l0,0v11.7c0,0.2,0.1,0.4,0.2,0.6l8,12.3c0.3,0.5,1.1,0.7,1.6,0.3c0.3-0.2,0.5-0.6,0.5-1V8.8
				c0.9-0.1,1.8,0.2,2.5,0.7c0.6,0.6,1,1.4,1.2,2.2c0.2,1.5,0.3,3,0.2,4.5c-0.1,1.9,0.2,3.9,0.8,5.7c0.3,1,0.8,1.9,1.6,2.6
				c0.2,0.2,0.5,0.4,0.7,0.6c0.5,0.4,0.7,1.1,0.3,1.6c-0.1,0.1-0.2,0.2-0.3,0.3c-0.3,0.2-0.6,0.5-0.9,0.8c-0.7,0.8-1.2,1.7-1.5,2.8
				c-0.5,1.9-0.7,3.9-0.6,5.9c0,1,0,1.8-0.1,2.6L11.6,0.6C11.4,0.2,11,0,10.6,0H1.1C0.5,0,0,0.5,0,1.2c0,0.2,0.1,0.4,0.2,0.6
				l31.5,48.9c0.3,0.4,0.7,0.8,1.1,1.1c0.2,0.2,0.5,0.3,0.8,0.3l1.2,0c3.5,0,6-0.4,7.5-1.2c1.4-0.7,2.5-1.9,3.2-3.4
				c0.7-2.1,1.1-4.4,0.9-6.6c0-0.7,0-1.3-0.1-2c0-0.4,0-0.8,0-1.2c-0.1-1.5,0.1-3,0.6-4.5c0.3-0.8,0.9-1.5,1.6-1.9
				c0.9-0.4,1.8-0.6,2.8-0.6c0.1,0,1.4-5.4,2.1-7.9c0.2-0.6-0.2-1.2-0.8-1.4C52.6,21.4,52.5,21.3,52.4,21.3z"/>
		</g>
		<g id="Layer_16" transform="translate(0 0.034)">
			<path id="Path_187" class="st0" d="M11.8,0.5c-0.2-0.3-0.6-0.5-1-0.5H1.2C0.5,0,0,0.5,0,1.2c0,0.2,0.1,0.4,0.2,0.6l32.1,49.7
				c0.3,0.5,1.1,0.7,1.6,0.3c0.1-0.1,0.2-0.2,0.3-0.3l5.1-7.2c0.3-0.4,0.3-0.9,0-1.3L11.8,0.5z"/>
		</g>
		<g id="Layer_17" transform="translate(15.122 0.033)">
			<path id="Path_188" class="st0" d="M11.8,0.5c-0.2-0.3-0.6-0.5-1-0.5H1.2C0.5,0,0,0.5,0,1.2c0,0.2,0.1,0.4,0.2,0.6l32.1,49.7
				c0.3,0.5,1.1,0.7,1.6,0.3c0.1-0.1,0.2-0.2,0.3-0.3l5.1-7.2c0.3-0.4,0.3-0.9,0-1.3L11.8,0.5z"/>
		</g>
	</g>
</g>
</svg>
